HIERARCHY
ROOT Hips
{
	OFFSET 0.000000 0.000000 0.000000
	CHANNELS 6 Xposition Yposition Zposition Zrotation Yrotation Xrotation 
	JOINT LHipJoint
	{
		OFFSET 0.000000 0.000000 0.000000
		CHANNELS 3 Zrotation Yrotation Xrotation
		JOINT LeftUpLeg
		{
			OFFSET 1.363060 -1.794630 0.839290
			CHANNELS 3 Zrotation Yrotation Xrotation
			JOINT LeftLeg
			{
				OFFSET 2.448110 -6.726130 0.000000
				CHANNELS 3 Zrotation Yrotation Xrotation
				JOINT LeftFoot
				{
					OFFSET 2.562200 -7.039590 0.000000
					CHANNELS 3 Zrotation Yrotation Xrotation
					JOINT LeftToeBase
					{
						OFFSET 0.157640 -0.433110 2.322550
						CHANNELS 3 Zrotation Yrotation Xrotation
						End Site
						{
							OFFSET 0.000000 0.000000 0.000000
						}
					}
				}
			}
		}
	}
	JOINT RHipJoint
	{
		OFFSET 0.000000 0.000000 0.000000
		CHANNELS 3 Zrotation Yrotation Xrotation
		JOINT RightUpLeg
		{
			OFFSET -1.305520 -1.794630 0.839290
			CHANNELS 3 Zrotation Yrotation Xrotation
			JOINT RightLeg
			{
				OFFSET -2.542530 -6.985550 0.000000
				CHANNELS 3 Zrotation Yrotation Xrotation
				JOINT RightFoot
				{
					OFFSET -2.568260 -7.056230 0.000000
					CHANNELS 3 Zrotation Yrotation Xrotation
					JOINT RightToeBase
					{
						OFFSET -0.164730 -0.452590 2.363150
						CHANNELS 3 Zrotation Yrotation Xrotation
						End Site
						{
							OFFSET 0.000000 0.000000 0.000000
						}
					}
				}
			}
		}
	}
	JOINT LowerBack
	{
		OFFSET 0.000000 0.000000 0.000000
		CHANNELS 3 Zrotation Yrotation Xrotation
		JOINT Spine
		{
			OFFSET 0.028270 2.035590 -0.193380
			CHANNELS 3 Zrotation Yrotation Xrotation
			JOINT Spine1
			{
				OFFSET 0.056720 2.048850 -0.042750
				CHANNELS 3 Zrotation Yrotation Xrotation
				JOINT Neck
				{
					OFFSET 0.000000 0.000000 0.000000
					CHANNELS 3 Zrotation Yrotation Xrotation
					JOINT Neck1
					{
						OFFSET -0.054170 1.746240 0.172020
						CHANNELS 3 Zrotation Yrotation Xrotation
						JOINT Head
						{
							OFFSET 0.104070 1.761360 -0.123970
							CHANNELS 3 Zrotation Yrotation Xrotation
							End Site
							{
								OFFSET 0.000000 0.000000 0.000000
							}
						}
					}
				}
				JOINT LeftShoulder
				{
					OFFSET 0.000000 0.000000 0.000000
					CHANNELS 3 Zrotation Yrotation Xrotation
					JOINT LeftArm
					{
						OFFSET 3.362410 1.200890 -0.311210
						CHANNELS 3 Zrotation Yrotation Xrotation
						JOINT LeftForeArm
						{
							OFFSET 4.983000 -0.000000 -0.000000
							CHANNELS 3 Zrotation Yrotation Xrotation
							JOINT LeftHand
							{
								OFFSET 3.483560 -0.000000 -0.000000
								CHANNELS 3 Zrotation Yrotation Xrotation
								JOINT LeftFingerBase
								{
									OFFSET 0.000000 0.000000 0.000000
									CHANNELS 3 Zrotation Yrotation Xrotation
									JOINT LeftHandIndex1
									{
										OFFSET 0.715260 -0.000000 -0.000000
										CHANNELS 3 Zrotation Yrotation Xrotation
										End Site
										{
											OFFSET 0.000000 0.000000 0.000000
										}
									}
								}
								JOINT LThumb
								{
									OFFSET 0.000000 0.000000 0.000000
									CHANNELS 3 Zrotation Yrotation Xrotation
									End Site
									{
										OFFSET 0.000000 0.000000 0.000000
									}
								}
							}
						}
					}
				}
				JOINT RightShoulder
				{
					OFFSET 0.000000 0.000000 0.000000
					CHANNELS 3 Zrotation Yrotation Xrotation
					JOINT RightArm
					{
						OFFSET -3.136600 1.374050 -0.404650
						CHANNELS 3 Zrotation Yrotation Xrotation
						JOINT RightForeArm
						{
							OFFSET -5.241900 -0.000000 -0.000000
							CHANNELS 3 Zrotation Yrotation Xrotation
							JOINT RightHand
							{
								OFFSET -3.444170 -0.000000 -0.000000
								CHANNELS 3 Zrotation Yrotation Xrotation
								JOINT RightFingerBase
								{
									OFFSET 0.000000 0.000000 0.000000
									CHANNELS 3 Zrotation Yrotation Xrotation
									JOINT RightHandIndex1
									{
										OFFSET -0.622530 -0.000000 -0.000000
										CHANNELS 3 Zrotation Yrotation Xrotation
										End Site
										{
											OFFSET 0.000000 0.000000 0.000000
										}
									}
								}
								JOINT RThumb
								{
									OFFSET 0.000000 0.000000 0.000000
									CHANNELS 3 Zrotation Yrotation Xrotation
									End Site
									{
										OFFSET 0.000000 0.000000 0.000000
									}
								}
							}
						}
					}
				}
			}
		}
	}
}
MOTION
Frames: 7
Frame Time: 0.008333
0.668087 15.084196 42.593116 -13.687128 -32.606756 16.202813 11.231819 2.041009 -10.425111 -6.300712 23.050558 -58.617431 9.266217 20.932077 53.161092 5.870211 -10.960401 31.749852 0.132400 2.345500 6.461500 0.969651 -6.070381 10.300262 0.421934 -4.354354 -3.837234 -1.642781 -6.940225 21.357728 18.588115 -38.086425 8.695527 -2.611500 10.037900 -29.099600 0.306100 -1.801332 8.309621 0.965804 -0.742508 -2.105343 5.258635 -2.294780 -7.716078 2.818499 6.104338 -5.923336 5.074851 7.669970 9.180914 0.911200 4.084200 1.960200 8.438312 -20.483307 -3.840214 2.438605 -23.956670 -57.521848 -2.481691 -4.941370 -2.436125 -13.048034 5.437500 66.273438 23.130055 25.314850 19.796500 -7.125000 0.000000 0.000000 1.362700 68.091500 0.755900 -6.722865 15.887778 2.156164 57.715641 -37.835660 60.698643 -121.694921 57.949634 -90.561869 -1.775108 3.991677 -63.881159 6.018158 -17.139976 -1.154500 7.125000 0.000000 0.000000 30.345100 -48.067400 -2.515000 
0.665133 15.075570 42.603751 -13.686006 -32.627328 16.204096 11.246706 2.055479 -10.416229 -6.308300 23.071715 -58.670576 9.317796 20.956515 53.299666 5.872975 -10.999228 31.616237 0.123000 2.261000 6.227500 0.950806 -6.077644 10.302272 0.409240 -4.319728 -3.809667 -1.644516 -6.944263 21.382860 18.581516 -38.063117 8.664938 -2.614400 10.043000 -29.116200 0.309241 -1.788489 8.287265 0.961592 -0.725712 -2.110823 5.246120 -2.287096 -7.728735 2.833467 6.086283 -5.912987 5.055564 7.646910 9.170933 0.886600 4.072000 1.966800 8.441589 -20.498325 -3.885543 2.382316 -23.966821 -57.387799 -2.480094 -4.947727 -2.436244 -13.032822 5.416810 66.268157 23.070462 25.315993 19.739800 -7.125000 0.000000 0.000000 1.239000 68.068600 0.686600 -6.725459 15.900129 2.162156 57.797660 -37.907953 60.610598 -121.739610 57.944865 -90.586229 -1.772221 3.988551 -63.831949 6.016509 -17.111230 -1.153800 7.125000 0.000000 0.000000 30.330700 -48.040300 -2.491600 
0.662061 15.067653 42.614267 -13.680085 -32.648473 16.204398 11.260207 2.067617 -10.408525 -6.319690 23.090243 -58.720436 9.368807 20.980225 53.432921 5.870874 -11.018079 31.483139 0.113600 2.172600 5.983000 0.930607 -6.083833 10.303346 0.394061 -4.275562 -3.779475 -1.642812 -6.947176 21.409800 18.561157 -38.011466 8.631030 -2.615100 10.044300 -29.120300 0.297285 -1.779959 8.267324 0.958218 -0.716337 -2.114312 5.240808 -2.281627 -7.714910 2.857965 6.079788 -5.946342 5.040283 7.636139 9.166144 0.867800 4.066400 1.986100 8.443879 -20.501152 -3.899154 2.369606 -23.968785 -57.339598 -2.480522 -4.949937 -2.433920 -13.019200 5.409550 66.293757 23.027025 25.306362 19.694500 -7.125000 0.000000 0.000000 1.156300 68.041900 0.640100 -6.731090 15.902123 2.160092 57.868719 -37.945892 60.540394 -121.779794 57.937577 -90.606086 -1.769896 3.984914 -63.780078 6.021718 -17.067158 -1.155000 7.125000 0.000000 0.000000 30.314900 -47.999200 -2.456800 
0.658753 15.060918 42.625138 -13.668673 -32.684161 16.197713 11.271569 2.080617 -10.398028 -6.332719 23.112829 -58.754105 9.418928 21.002790 53.557299 5.865552 -11.016141 31.348076 0.103600 2.075200 5.713500 0.908931 -6.093877 10.306168 0.368702 -4.203790 -3.737592 -1.636311 -6.946658 21.423185 18.537391 -37.954293 8.603012 -2.615200 10.044400 -29.120700 0.262661 -1.771717 8.251862 0.955491 -0.709442 -2.115368 5.246940 -2.276100 -7.689798 2.881739 6.084928 -5.993601 5.032208 7.639616 9.164402 0.856100 4.068200 2.004700 8.443011 -20.496053 -3.889916 2.383887 -23.960276 -57.354210 -2.483905 -4.946104 -2.429273 -13.005669 5.415069 66.335641 23.001821 25.280393 19.658600 -7.125000 0.000000 0.000000 1.125000 68.002400 0.621700 -6.736547 15.897405 2.154427 57.919076 -37.961112 60.498185 -121.813711 57.929792 -90.620814 -1.768609 3.981044 -63.728200 6.038957 -17.007896 -1.159900 7.125000 0.000000 0.000000 30.302400 -47.944000 -2.410800 
0.655799 15.054182 42.636127 -13.655710 -32.703944 16.204780 11.280464 2.090752 -10.392742 -6.344201 23.116456 -58.799241 9.471804 21.029012 53.690101 5.854777 -11.002493 31.204185 0.092800 1.965000 5.408900 0.889347 -6.105126 10.312429 0.343326 -4.136522 -3.694929 -1.624515 -6.938799 21.415842 18.511148 -37.893161 8.582396 -2.615500 10.045000 -29.122400 0.242041 -1.770405 8.215717 0.953588 -0.710529 -2.116594 5.246680 -2.273322 -7.663337 2.897359 6.092099 -6.033426 5.029774 7.646451 9.164474 0.852200 4.071900 2.016900 8.441533 -20.486888 -3.878047 2.397971 -23.959300 -57.405956 -2.490148 -4.936246 -2.424314 -12.991091 5.430978 66.389980 22.996236 25.252643 19.637800 -7.125000 0.000000 0.000000 1.135900 67.963800 0.626800 -6.742627 15.891793 2.148737 57.947958 -37.974703 60.474778 -121.848268 57.922786 -90.636270 -1.767456 3.978847 -63.677026 6.052930 -16.956548 -1.163500 7.125000 0.000000 0.000000 30.290600 -47.897000 -2.371600 
0.653317 15.046856 42.647589 -13.664370 -32.704277 16.237736 11.291198 2.099643 -10.396620 -6.335564 23.102521 -58.856110 9.529814 21.059609 53.834707 5.841077 -10.988219 31.050889 0.081800 1.845100 5.077600 0.877064 -6.115936 10.322751 0.331561 -4.072136 -3.648099 -1.606265 -6.925342 21.382757 18.493350 -37.850637 8.565813 -2.618800 10.050800 -29.141500 0.244525 -1.783976 8.163306 0.955720 -0.728191 -2.114582 5.246756 -2.278072 -7.619480 2.914886 6.111737 -6.092621 5.032986 7.668951 9.167996 0.856000 4.083700 2.027200 8.436851 -20.463130 -3.832310 2.450554 -23.944725 -57.544542 -2.499831 -4.917514 -2.417389 -12.985417 5.450288 66.444349 22.997350 25.223065 19.627800 -7.125000 0.000000 0.000000 1.164600 67.932500 0.641800 -6.746563 15.875226 2.136031 57.934834 -37.954087 60.492165 -121.870519 57.916727 -90.644087 -1.767065 3.978983 -63.630523 6.065052 -16.912880 -1.166300 7.125000 0.000000 0.000000 30.280800 -47.858700 -2.339600 
0.651072 15.039058 42.658696 -13.677314 -32.688083 16.284594 11.301133 2.107863 -10.405188 -6.319963 23.073081 -58.926446 9.590306 21.093653 53.989476 5.825936 -10.978593 30.895003 0.071600 1.726400 4.750000 0.869718 -6.129564 10.338005 0.323622 -4.020976 -3.602364 -1.586557 -6.905957 21.324226 18.495824 -37.848237 8.555116 -2.626900 10.065100 -29.187900 0.262212 -1.803076 8.095261 0.959695 -0.751493 -2.112752 5.244383 -2.285125 -7.589914 2.921660 6.127793 -6.123395 5.039215 7.688561 9.170205 0.862800 4.093900 2.025400 8.431837 -20.442078 -3.796200 2.487118 -23.933238 -57.656568 -2.510455 -4.898155 -2.410853 -12.979709 5.468047 66.488282 22.999779 25.195929 19.619200 -7.125000 0.000000 0.000000 1.194900 67.902800 0.657700 -6.747794 15.862812 2.126884 57.903216 -37.940238 60.523747 -121.891436 57.912070 -90.652417 -1.766427 3.980698 -63.586111 6.065797 -16.878957 -1.165100 7.125000 0.000000 0.000000 30.264900 -47.831000 -2.315700 
